<mxfile host="app.diagrams.net" modified="2022-09-22T22:23:22.868Z" agent="5.0 (Macintosh; Intel Mac OS X 10_15_7) AppleWebKit/605.1.15 (KHTML, like Gecko) Version/15.5 Safari/605.1.15" etag="A97J7tGdbo9kYW_04VJy" version="20.3.6" type="github">
  <diagram id="prtHgNgQTEPvFCAcTncT" name="Page-1">
    <mxGraphModel dx="613" dy="534" grid="1" gridSize="10" guides="1" tooltips="1" connect="1" arrows="1" fold="1" page="1" pageScale="1" pageWidth="827" pageHeight="1169" math="0" shadow="0">
      <root>
        <mxCell id="0" />
        <mxCell id="1" parent="0" />
        <mxCell id="3zMUXTs9KpUINqi3-DU--1" value="&lt;span style=&quot;font-size: 16px; text-align: start; caret-color: rgb(251, 74, 62); color: rgb(42, 43, 46); font-family: &amp;quot;PingFang SC&amp;quot;, &amp;quot;Microsoft YaHei&amp;quot;, 微软雅黑, 宋体, &amp;quot;Malgun Gothic&amp;quot;, sans-serif; background-color: rgb(252, 253, 254);&quot;&gt;Seeking light&lt;/span&gt;" style="rounded=0;whiteSpace=wrap;html=1;" vertex="1" parent="1">
          <mxGeometry x="160" y="40" width="130" height="60" as="geometry" />
        </mxCell>
        <mxCell id="3zMUXTs9KpUINqi3-DU--2" value="&lt;span style=&quot;font-size: 16px; text-align: start; caret-color: rgb(251, 74, 62); color: rgb(42, 43, 46); font-family: &amp;quot;PingFang SC&amp;quot;, &amp;quot;Microsoft YaHei&amp;quot;, 微软雅黑, 宋体, &amp;quot;Malgun Gothic&amp;quot;, sans-serif; background-color: rgb(252, 253, 254);&quot;&gt;Head toward weak light&lt;/span&gt;" style="rounded=0;whiteSpace=wrap;html=1;" vertex="1" parent="1">
          <mxGeometry x="160" y="120" width="130" height="60" as="geometry" />
        </mxCell>
        <mxCell id="3zMUXTs9KpUINqi3-DU--3" value="&lt;span style=&quot;font-size: 16px; text-align: start; caret-color: rgb(251, 74, 62); color: rgb(42, 43, 46); font-family: &amp;quot;PingFang SC&amp;quot;, &amp;quot;Microsoft YaHei&amp;quot;, 微软雅黑, 宋体, &amp;quot;Malgun Gothic&amp;quot;, sans-serif; background-color: rgb(252, 253, 254);&quot;&gt;Back away from bright light&lt;/span&gt;" style="rounded=0;whiteSpace=wrap;html=1;" vertex="1" parent="1">
          <mxGeometry x="160" y="200" width="130" height="60" as="geometry" />
        </mxCell>
        <mxCell id="3zMUXTs9KpUINqi3-DU--4" value="&lt;span style=&quot;font-size: 16px; text-align: start; caret-color: rgb(251, 74, 62); color: rgb(42, 43, 46); font-family: &amp;quot;PingFang SC&amp;quot;, &amp;quot;Microsoft YaHei&amp;quot;, 微软雅黑, 宋体, &amp;quot;Malgun Gothic&amp;quot;, sans-serif; background-color: rgb(252, 253, 254);&quot;&gt;Turn and push&lt;/span&gt;" style="rounded=0;whiteSpace=wrap;html=1;" vertex="1" parent="1">
          <mxGeometry x="160" y="280" width="130" height="60" as="geometry" />
        </mxCell>
        <mxCell id="3zMUXTs9KpUINqi3-DU--5" value="&lt;span style=&quot;font-size: 16px; text-align: start; caret-color: rgb(251, 74, 62); color: rgb(42, 43, 46); font-family: &amp;quot;PingFang SC&amp;quot;, &amp;quot;Microsoft YaHei&amp;quot;, 微软雅黑, 宋体, &amp;quot;Malgun Gothic&amp;quot;, sans-serif; background-color: rgb(252, 253, 254);&quot;&gt;Recharge battery&lt;/span&gt;" style="rounded=0;whiteSpace=wrap;html=1;" vertex="1" parent="1">
          <mxGeometry x="160" y="360" width="130" height="60" as="geometry" />
        </mxCell>
      </root>
    </mxGraphModel>
  </diagram>
</mxfile>
